<?xml version="1.0" encoding="UTF-8"?>
<svg id="Layer_1" data-name="Layer 1" xmlns="http://www.w3.org/2000/svg" xmlns:xlink="http://www.w3.org/1999/xlink" version="1.1" viewBox="0 0 1920 1080">
  <defs>
    <style>
      .cls-1 {
        fill: url(#linear-gradient);
      }

      .cls-1, .cls-2, .cls-3 {
        stroke-width: 0px;
      }

      .cls-2 {
        fill: #000;
      }

      .cls-3 {
        fill: url(#linear-gradient-2);
      }
    </style>
    <linearGradient id="linear-gradient" x1="849.32" y1="357.37" x2="1010.56" y2="357.42" gradientUnits="userSpaceOnUse">
      <stop offset="0" stop-color="#fff"/>
      <stop offset=".75" stop-color="#414141"/>
      <stop offset="1" stop-color="#000"/>
    </linearGradient>
    <linearGradient id="linear-gradient-2" x1="822.15" y1="524.21" x2="952.42" y2="276.25" xlink:href="#linear-gradient"/>
  </defs>
  <g>
    <polygon class="cls-1" points="1009.1 594.21 851.22 516.88 851.22 120.58 1009.1 197.9 1009.1 594.21"/>
    <polygon class="cls-3" points="976.88 616.76 819 539.44 819 143.13 976.88 220.46 976.88 616.76"/>
  </g>
  <g>
    <path class="cls-2" d="M433.58,912.3c-3.49,0-5.24,6.71-5.24,20.14s1.74,20.14,5.24,20.14,5.24.99,5.24,2.98-1.75,3.06-5.24,3.06h-16.92c-3.49,0-5.24-1.02-5.24-3.06s1.74-2.98,5.24-2.98,5.24-6.71,5.24-20.14-1.75-20.14-5.24-20.14-5.24-1.02-5.24-3.06,4.56-2.98,13.69-2.98,13.69.99,13.69,2.98-1.75,3.06-5.24,3.06Z"/>
    <path class="cls-2" d="M484.73,906.26c2.15,0,3.22,8.73,3.22,26.18s-1.07,26.18-3.22,26.18-7.25-6.85-15.3-20.54c-8.05-13.64-12.08-13.64-12.08,0s-1.07,20.54-3.22,20.54-3.22-8.73-3.22-26.18,1.07-26.18,3.22-26.18,7.25,6.9,15.3,20.7c8.05,13.86,12.08,13.86,12.08,0s1.07-20.7,3.22-20.7Z"/>
    <path class="cls-2" d="M498.75,941.62c1.93,0,3.01,1.72,3.22,5.16l7.89,6.6h9.91l5.48-4.59v-6.44l-2.98-3.3-2.58-1.85c-1.34-.54-2.95-1.11-4.83-1.73-1.88-.62-3.84-1.3-5.88-2.05l-6.44-3.06-4.99-5.96v-8.54l3.95-6.52,7.49-3.87h13.13l8.7,9.1c-.11,5.1-1.1,7.65-2.98,7.65-1.99,0-3.01-1.8-3.06-5.4l-6.12-5.24h-9.1l-5.56,4.03v6.44l2.82,3.38,4.03,1.93c1.18.43,2.24.81,3.18,1.13s1.6.54,1.97.65c.81.38,1.56.67,2.25.89.38.16,1.05.44,2.01.85.97.4,2.26.9,3.87,1.49l3.87,2.98,3.71,5.32v10.79l-8.54,7.97h-14.34l-9.1-5.64-4.03-7.65c0-1.4-.01-2.4-.04-3.02-.03-.62.16-1.02.56-1.21.4-.19,1.25-.28,2.54-.28Z"/>
    <path class="cls-2" d="M578.97,909.24c0,2.04-2.95,3.06-8.86,3.06s-8.86,7.71-8.86,23.12-1.07,23.2-3.22,23.2-3.22-7.73-3.22-23.2-2.95-23.12-8.86-23.12-8.86-1.02-8.86-3.06,6.98-2.98,20.94-2.98,20.94.99,20.94,2.98Z"/>
    <path class="cls-2" d="M618.6,958.62c-.91,0-1.76-.46-2.54-1.37-.78-.91-1.48-2.05-2.1-3.42-.62-1.37-1.14-2.74-1.57-4.11-.43-1.37-.86-2.97-1.29-4.79h-8.86c-5.91,0-9.53,2.28-10.87,6.85-1.34,4.57-3.14,6.85-5.4,6.85-.54,0-.79-.75-.76-2.26.03-1.5.28-3.52.76-6.04.48-2.52,1.14-5.36,1.97-8.5.83-3.14,1.76-6.4,2.78-9.79,1.02-3.38,2.08-6.65,3.18-9.79,1.1-3.14,2.19-5.97,3.26-8.5s2.05-4.54,2.94-6.04,1.6-2.26,2.13-2.26c.59,0,1.32.75,2.17,2.26s1.82,3.52,2.9,6.04,2.18,5.36,3.3,8.5c1.13,3.14,2.2,6.4,3.22,9.79,1.02,3.38,1.94,6.65,2.78,9.79.83,3.14,1.5,5.97,2.01,8.5.51,2.53.78,4.54.81,6.04.03,1.5-.25,2.26-.85,2.26ZM602.25,938.8c4.72,0,5.91-4.03,3.54-12.08-2.36-8.05-4.73-8.05-7.09,0-2.31,8.05-1.13,12.08,3.54,12.08Z"/>
    <path class="cls-2" d="M661.94,906.26c2.15,0,3.22,8.73,3.22,26.18s-1.07,26.18-3.22,26.18-7.25-6.85-15.3-20.54c-8.05-13.64-12.08-13.64-12.08,0s-1.07,20.54-3.22,20.54-3.22-8.73-3.22-26.18,1.07-26.18,3.22-26.18,7.25,6.9,15.3,20.7c8.05,13.86,12.08,13.86,12.08,0s1.07-20.7,3.22-20.7Z"/>
    <path class="cls-2" d="M709.46,949.84l-8.86,9.59h-18.93l-10.07-14.18v-25.62l10.07-14.18h18.93l9.02,9.59c.43,5.91-.35,8.86-2.33,8.86s-3.36-2.09-4.11-6.28l-5.64-6.12h-12.73l-6.77,10.63v20.7l6.77,10.55h12.73l5.4-6.12c.32-4.08,1.5-6.12,3.54-6.12s2.98,2.9,2.98,8.7Z"/>
    <path class="cls-2" d="M738.53,952.58c10.2,0,15.3.99,15.3,2.98s-6.17,3.06-18.53,3.06-18.61-8.73-18.61-26.18,6.17-26.18,18.53-26.18,18.53.99,18.53,2.98-5.1,3.06-15.3,3.06-15.3,2.87-15.3,8.62,4.19,8.62,12.57,8.62,12.49.99,12.49,2.98-4.16,3.06-12.49,3.06-12.57,2.82-12.57,8.46,5.13,8.54,15.38,8.54Z"/>
    <path class="cls-2" d="M764.55,941.62c1.93,0,3.01,1.72,3.22,5.16l7.89,6.6h9.91l5.48-4.59v-6.44l-2.98-3.3-2.58-1.85c-1.34-.54-2.95-1.11-4.83-1.73-1.88-.62-3.84-1.3-5.88-2.05l-6.44-3.06-4.99-5.96v-8.54l3.95-6.52,7.49-3.87h13.13l8.7,9.1c-.11,5.1-1.1,7.65-2.98,7.65-1.99,0-3.01-1.8-3.06-5.4l-6.12-5.24h-9.1l-5.56,4.03v6.44l2.82,3.38,4.03,1.93c1.18.43,2.24.81,3.18,1.13s1.6.54,1.97.65c.81.38,1.56.67,2.25.89.38.16,1.05.44,2.01.85.97.4,2.26.9,3.87,1.49l3.87,2.98,3.71,5.32v10.79l-8.54,7.97h-14.34l-9.1-5.64-4.03-7.65c0-1.4-.01-2.4-.04-3.02-.03-.62.16-1.02.56-1.21.4-.19,1.25-.28,2.54-.28Z"/>
    <path class="cls-2" d="M858.31,959.42l-9.51-14.18v-25.37l9.99-14.42h19.17l9.51,14.18v25.62l-9.51,14.18h-19.65ZM874.82,953.22l6.2-10.39v-20.7l-6.2-10.47h-13.37l-6.2,10.47v20.7l6.2,10.39h13.37Z"/>
    <path class="cls-2" d="M915.66,912.46c-10.2,0-15.3,2.82-15.3,8.46s4.19,8.54,12.57,8.54,12.49,1.02,12.49,3.06-4.16,3.14-12.49,3.14-12.57,3.81-12.57,11.44-1.07,11.52-3.22,11.52-3.22-8.73-3.22-26.18,6.17-26.18,18.53-26.18,18.53,1.02,18.53,3.06-5.1,3.14-15.3,3.14Z"/>
    <path class="cls-2" d="M1009.09,934.69l5.8,1.77,3.22,4.67v10.95c0,4.35-1.04,6.52-3.14,6.52s-3.22-2.17-3.22-6.52c-.05-2.2-.08-4.52-.08-6.97v-7.85h-17.15c-3.71,0-5.56,3.54-5.56,10.63s-1.07,10.71-3.22,10.71-3.22-8.73-3.22-26.18,3.19-26.18,9.59-26.18h17.8l9.02,7.57v13.69l-7.81,6.44c-4.46.43-5.13.67-2.01.73ZM995.32,931.07h11.11l6.04-5.56v-8.54l-5.96-4.51h-11.2c-4.24,0-6.37,3.09-6.37,9.26s2.12,9.35,6.37,9.35Z"/>
    <path class="cls-2" d="M1048.64,952.58c10.2,0,15.3.99,15.3,2.98s-6.17,3.06-18.53,3.06-18.61-8.73-18.61-26.18,6.17-26.18,18.53-26.18,18.53.99,18.53,2.98-5.1,3.06-15.3,3.06-15.3,2.87-15.3,8.62,4.19,8.62,12.56,8.62,12.49.99,12.49,2.98-4.16,3.06-12.49,3.06-12.56,2.82-12.56,8.46,5.13,8.54,15.38,8.54Z"/>
    <path class="cls-2" d="M1092.86,912.46c-10.2,0-15.3,2.82-15.3,8.46s4.19,8.54,12.57,8.54,12.49,1.02,12.49,3.06-4.16,3.14-12.49,3.14-12.57,3.81-12.57,11.44-1.07,11.52-3.22,11.52-3.22-8.73-3.22-26.18,6.18-26.18,18.53-26.18,18.53,1.02,18.53,3.06-5.1,3.14-15.3,3.14Z"/>
    <path class="cls-2" d="M1137.16,952.58c10.2,0,15.3.99,15.3,2.98s-5.18,3.06-15.55,3.06h-18.53c-1.99,0-2.98-8.73-2.98-26.18s1.07-26.18,3.22-26.18,3.22,7.71,3.22,23.12,5.1,23.2,15.3,23.2Z"/>
    <path class="cls-2" d="M1181.54,952.58c10.2,0,15.3.99,15.3,2.98s-6.18,3.06-18.53,3.06-18.61-8.73-18.61-26.18,6.18-26.18,18.53-26.18,18.53.99,18.53,2.98-5.1,3.06-15.3,3.06-15.3,2.87-15.3,8.62,4.19,8.62,12.57,8.62,12.49.99,12.49,2.98-4.16,3.06-12.49,3.06-12.57,2.82-12.57,8.46,5.13,8.54,15.39,8.54Z"/>
    <path class="cls-2" d="M1241.07,949.84l-8.86,9.59h-18.93l-10.07-14.18v-25.62l10.07-14.18h18.93l9.02,9.59c.43,5.91-.35,8.86-2.33,8.86s-3.36-2.09-4.11-6.28l-5.64-6.12h-12.73l-6.76,10.63v20.7l6.76,10.55h12.73l5.4-6.12c.32-4.08,1.5-6.12,3.55-6.12s2.98,2.9,2.98,8.7Z"/>
    <path class="cls-2" d="M1287.79,909.24c0,2.04-2.95,3.06-8.86,3.06s-8.86,7.71-8.86,23.12-1.07,23.2-3.22,23.2-3.22-7.73-3.22-23.2-2.95-23.12-8.86-23.12-8.86-1.02-8.86-3.06,6.98-2.98,20.94-2.98,20.94.99,20.94,2.98Z"/>
    <path class="cls-2" d="M1319.6,912.3c-3.49,0-5.24,6.71-5.24,20.14s1.74,20.14,5.24,20.14,5.24.99,5.24,2.98-1.75,3.06-5.24,3.06h-16.92c-3.49,0-5.24-1.02-5.24-3.06s1.74-2.98,5.24-2.98,5.24-6.71,5.24-20.14-1.75-20.14-5.24-20.14-5.24-1.02-5.24-3.06,4.56-2.98,13.69-2.98,13.69.99,13.69,2.98-1.75,3.06-5.24,3.06Z"/>
    <path class="cls-2" d="M1345.62,959.42l-9.51-14.18v-25.37l9.99-14.42h19.17l9.51,14.18v25.62l-9.51,14.18h-19.65ZM1362.13,953.22l6.2-10.39v-20.7l-6.2-10.47h-13.37l-6.2,10.47v20.7l6.2,10.39h13.37Z"/>
    <path class="cls-2" d="M1415.05,906.26c2.15,0,3.22,8.73,3.22,26.18s-1.08,26.18-3.22,26.18-7.25-6.85-15.3-20.54c-8.05-13.64-12.08-13.64-12.08,0s-1.08,20.54-3.22,20.54-3.22-8.73-3.22-26.18,1.07-26.18,3.22-26.18,7.25,6.9,15.3,20.7c8.05,13.86,12.08,13.86,12.08,0s1.07-20.7,3.22-20.7Z"/>
  </g>
  <path class="cls-2" d="M965.18,752.16c-27.61,0-48.5,45.65-48.5,45.65-.2-.31-.31-.71-.41-1.12-.2.41-.31.81-.51,1.12,0,0-20.89-45.65-48.5-45.65,0,0,30.06-20.69,44.43-42.19,0,0,0-.1.1-.1,1.73-2.55,3.26-5.2,4.48-7.85,1.12,2.65,2.65,5.3,4.38,7.85l.1.1c14.37,21.5,44.43,42.19,44.43,42.19Z"/>
  <g>
    <path class="cls-2" d="M330.02,830.14c-15.19,0-28.68-3.08-40.48-9.25-11.81-6.16-21.05-14.89-27.74-26.16-6.69-11.28-10.04-24.66-10.04-40.15s3.34-28.9,10.04-40.26c6.69-11.35,15.94-20.11,27.74-26.28,11.8-6.16,25.3-9.25,40.48-9.25s28.91,3.08,40.71,9.25c11.8,6.17,21.05,14.93,27.74,26.28,6.69,11.35,10.04,24.77,10.04,40.26s-3.35,28.87-10.04,40.15c-6.69,11.28-15.94,20-27.74,26.16-11.81,6.17-25.37,9.25-40.71,9.25ZM330.02,810.52c10.83,0,20.45-2.1,28.87-6.31,8.42-4.21,15.11-10.49,20.07-18.83s7.44-18.61,7.44-30.79-2.48-22.67-7.44-31.01c-4.96-8.34-11.65-14.62-20.07-18.83-8.42-4.21-18.04-6.31-28.87-6.31s-20.26,2.11-28.76,6.31c-8.5,4.21-15.22,10.49-20.19,18.83-4.96,8.35-7.44,18.69-7.44,31.01s2.48,22.44,7.44,30.79c4.96,8.34,11.69,14.62,20.19,18.83,8.49,4.21,18.08,6.31,28.76,6.31Z"/>
    <path class="cls-2" d="M434.22,715.12h21.65v32.03c2.71-9.92,7.82-18.12,15.34-24.58,7.52-6.46,16.69-9.7,27.52-9.7s19.81,2.63,26.95,7.89c7.14,5.27,11.76,12.86,13.87,22.78,3.16-9.02,8.42-16.39,15.79-22.1,7.37-5.71,16.01-8.57,25.94-8.57,12.63,0,22.74,3.57,30.34,10.71,7.59,7.14,11.39,17.41,11.39,30.79v73.3h-21.43v-68.56c0-17.74-8.65-26.61-25.94-26.61-7.97,0-15.07,2.11-21.31,6.31-6.24,4.21-10.86,9.63-13.87,16.24v72.62h-21.43v-68.56c0-17.74-8.65-26.61-25.94-26.61-8.87,0-16.73,2.67-23.57,8.01-6.85,5.34-11.39,12.07-13.65,20.19v66.99h-21.65v-112.54Z"/>
    <path class="cls-2" d="M651.41,715.12h21.65v32.03c2.71-9.92,7.82-18.12,15.34-24.58,7.52-6.46,16.69-9.7,27.52-9.7,12.63,0,22.74,3.57,30.34,10.71,7.59,7.14,11.39,17.41,11.39,30.79v73.3h-21.43v-68.56c0-17.74-8.65-26.61-25.94-26.61-8.87,0-16.73,2.67-23.57,8.01-6.85,5.34-11.39,12.07-13.65,20.19v66.99h-21.65v-112.54Z"/>
    <path class="cls-2" d="M811.99,668.66v23.23h-26.84v-23.23h26.84ZM787.86,715.12h21.43v112.54h-21.43v-112.54Z"/>
  </g>
  <g>
    <path class="cls-2" d="M1042.62,679.32v128.79h87.38v19.67h-109.35v-148.47h21.96Z"/>
    <path class="cls-2" d="M1206.18,830.3c-11.29,0-21.54-2.37-30.77-7.09-9.23-4.73-16.59-11.51-22.08-20.36-5.49-8.84-8.24-19.45-8.24-31.8s2.75-23.22,8.24-32.14c5.49-8.92,12.84-15.74,22.08-20.47,9.23-4.73,19.48-7.09,30.77-7.09s21.28,2.37,30.43,7.09c9.15,4.73,16.47,11.55,21.96,20.47,5.49,8.92,8.23,19.64,8.23,32.14s-2.75,22.96-8.23,31.8c-5.49,8.85-12.81,15.63-21.96,20.36-9.15,4.72-19.29,7.09-30.43,7.09ZM1206.18,811.32c6.87,0,13.23-1.56,19.11-4.69,5.87-3.12,10.6-7.7,14.18-13.73,3.58-6.02,5.38-13.3,5.38-21.85s-1.8-16.09-5.38-22.19c-3.58-6.1-8.32-10.75-14.18-13.95-5.87-3.2-12.24-4.8-19.11-4.8s-13.27,1.6-19.21,4.8c-5.95,3.2-10.75,7.86-14.41,13.95-3.66,6.1-5.49,13.5-5.49,22.19s1.79,15.82,5.37,21.85c3.58,6.03,8.35,10.6,14.3,13.73,5.95,3.13,12.43,4.69,19.45,4.69Z"/>
    <path class="cls-2" d="M1370.66,874v-5.26c0-7.78-2.17-13.35-6.52-16.7-4.35-3.35-10.57-5.03-18.65-5.03h-26.76c-11.29,0-19.41-1.83-24.36-5.49-4.96-3.66-7.44-8.54-7.44-14.64,0-5.03,1.41-9.04,4.23-12.01,2.82-2.97,6.44-5.07,10.86-6.29s9.15-1.75,14.18-1.6c-9.46-3.2-17.24-8.69-23.33-16.47-6.1-7.78-9.15-17.61-9.15-29.51,0-10.07,2.29-18.83,6.86-26.31,4.57-7.47,10.79-13.23,18.64-17.27,7.85-4.04,16.66-6.06,26.42-6.06,5.64,0,10.9.77,15.78,2.29h49.87v20.59c-5.8,0-11.67-.84-17.61-2.52-5.95-1.68-11.29-3.58-16.02-5.72,6.1,4.12,10.87,9.15,14.3,15.1,3.43,5.95,5.15,12.74,5.15,20.36,0,10.22-2.25,18.95-6.75,26.19-4.5,7.25-10.68,12.77-18.53,16.59-7.85,3.81-16.58,5.72-26.19,5.72-8.69.46-15.33,1.3-19.9,2.52s-6.86,3.81-6.86,7.78c0,2.29.87,4.12,2.63,5.49,1.75,1.38,4.38,2.06,7.89,2.06h27.91c8.69,0,16.43,1.1,23.22,3.32,6.79,2.21,12.12,5.95,16.01,11.21,3.89,5.26,5.83,12.47,5.83,21.62v10.07h-21.73ZM1335.66,791.41c8.08,0,15.1-2.59,21.04-7.78,5.95-5.18,8.92-12.66,8.92-22.42s-2.94-17.54-8.81-22.88c-5.87-5.34-12.93-8-21.16-8s-15.56,2.67-21.5,8c-5.95,5.34-8.92,12.97-8.92,22.88s2.98,17.24,8.92,22.42c5.95,5.19,13.11,7.78,21.5,7.78Z"/>
    <path class="cls-2" d="M1529.87,827.79h-21.73v-38.43c-.92,3.66-2.29,7.82-4.12,12.47-1.83,4.65-4.39,9.15-7.66,13.5-3.28,4.35-7.44,7.93-12.47,10.75-5.03,2.82-11.21,4.23-18.53,4.23-5.03,0-10.06-.69-15.1-2.06s-9.68-3.66-13.95-6.86-7.7-7.59-10.29-13.15c-2.6-5.57-3.89-12.55-3.89-20.93v-73.66h21.96v69.09c0,10.52,2.48,17.73,7.44,21.62,4.95,3.89,11.4,5.83,19.33,5.83,6.86,0,12.81-1.56,17.84-4.69,5.03-3.12,9.15-7.01,12.35-11.67,3.2-4.65,5.57-9.41,7.09-14.3v-65.88h21.73v114.15Z"/>
    <path class="cls-2" d="M1646.77,790.73h20.82c-1.99,11.29-7.55,20.7-16.7,28.25-9.15,7.55-21.28,11.32-36.37,11.32-11.89,0-22.5-2.48-31.8-7.43-9.3-4.96-16.63-11.9-21.96-20.82-5.34-8.92-8-19.25-8-31s2.59-22.3,7.78-31.23c5.18-8.92,12.35-15.9,21.5-20.93,9.15-5.03,19.6-7.55,31.34-7.55,18.45,0,32.48,5.42,42.09,16.24,9.61,10.83,13.8,26.92,12.58,48.27h-93.56c1.07,10.37,5.15,18.87,12.24,25.51,7.09,6.64,16.28,9.95,27.57,9.95,8.23,0,15.21-1.9,20.93-5.72,5.72-3.81,9.57-8.77,11.55-14.87ZM1613.6,730.1c-10.07,0-18.34,2.67-24.82,8.01-6.48,5.34-10.79,12.28-12.93,20.82h70.23c-.77-9.3-4.16-16.43-10.18-21.39-6.03-4.95-13.46-7.44-22.3-7.44Z"/>
  </g>
</svg>